<svg xmlns="http://www.w3.org/2000/svg" xmlns:xlink="http://www.w3.org/1999/xlink" width="300" zoomAndPan="magnify" viewBox="0 0 224.87999 89.999999" height="120" preserveAspectRatio="xMidYMid meet" version="1.0"><defs><g/><clipPath id="a20d57b97c"><path d="M 1.269531 14.839844 L 48 14.839844 L 48 73.308594 L 1.269531 73.308594 Z M 1.269531 14.839844 " clip-rule="nonzero"/></clipPath><clipPath id="2c66077307"><path d="M 22 30 L 65.738281 30 L 65.738281 73.308594 L 22 73.308594 Z M 22 30 " clip-rule="nonzero"/></clipPath></defs><g clip-path="url(#a20d57b97c)"><path fill="#29292b" d="M 2.789062 67.804688 C 3.78125 69.53125 5.160156 70.898438 6.792969 71.847656 C 8.4375 72.796875 10.3125 73.308594 12.308594 73.308594 L 31.367188 73.308594 C 33.351562 73.308594 35.222656 72.796875 36.871094 71.847656 C 38.503906 70.898438 39.882812 69.53125 40.886719 67.804688 L 46.683594 57.78125 C 47.550781 56.28125 47.042969 54.378906 45.542969 53.507812 C 44.046875 52.640625 42.144531 53.148438 41.273438 54.648438 L 35.476562 64.671875 L 35.476562 64.6875 C 35.035156 65.449219 34.449219 66.050781 33.765625 66.441406 C 33.082031 66.828125 32.265625 67.042969 31.367188 67.042969 L 12.308594 67.042969 C 11.410156 67.042969 10.59375 66.828125 9.925781 66.441406 L 9.910156 66.441406 C 9.226562 66.050781 8.640625 65.449219 8.195312 64.671875 C 7.753906 63.910156 7.542969 63.105469 7.542969 62.304688 C 7.542969 61.5 7.753906 60.683594 8.195312 59.933594 L 18.800781 41.582031 L 18.800781 41.570312 L 29.386719 23.203125 C 29.828125 22.441406 30.417969 21.851562 31.113281 21.449219 C 31.796875 21.0625 32.601562 20.847656 33.511719 20.847656 C 34.355469 20.847656 35.128906 21.035156 35.773438 21.371094 C 35.8125 21.394531 35.851562 21.421875 35.894531 21.4375 C 36.589844 21.835938 37.191406 22.441406 37.621094 23.191406 C 38.476562 24.6875 40.390625 25.199219 41.875 24.339844 C 43.375 23.484375 43.882812 21.570312 43.027344 20.085938 C 42.023438 18.34375 40.644531 16.964844 39.023438 16.027344 C 38.957031 15.988281 38.890625 15.949219 38.8125 15.921875 C 37.21875 15.039062 35.410156 14.570312 33.496094 14.570312 C 31.515625 14.570312 29.640625 15.078125 27.996094 16.027344 L 27.980469 16.027344 C 26.363281 16.964844 24.984375 18.34375 23.980469 20.085938 L 13.390625 38.421875 L 2.789062 56.800781 C 1.785156 58.542969 1.277344 60.417969 1.277344 62.304688 C 1.277344 64.179688 1.785156 66.050781 2.789062 67.804688 Z M 2.789062 67.804688 " fill-opacity="1" fill-rule="evenodd"/></g><g clip-path="url(#2c66077307)"><path fill="#29292b" d="M 50.054688 73.308594 L 54.699219 73.308594 C 56.683594 73.308594 58.554688 72.796875 60.203125 71.847656 C 61.847656 70.898438 63.226562 69.53125 64.21875 67.804688 C 64.257812 67.738281 64.296875 67.671875 64.324219 67.605469 C 65.261719 65.917969 65.730469 64.109375 65.730469 62.304688 C 65.730469 60.429688 65.222656 58.554688 64.21875 56.816406 L 52.34375 36.226562 C 51.339844 34.488281 49.960938 33.109375 48.34375 32.171875 L 48.328125 32.171875 C 46.683594 31.222656 44.808594 30.710938 42.828125 30.710938 C 40.847656 30.710938 38.972656 31.222656 37.324219 32.171875 C 35.691406 33.121094 34.3125 34.488281 33.308594 36.226562 L 22.839844 54.367188 C 22.558594 54.859375 22.425781 55.382812 22.425781 55.917969 C 22.425781 57.003906 22.988281 58.046875 23.992188 58.621094 C 25.492188 59.480469 27.394531 58.972656 28.25 57.472656 L 38.71875 39.332031 C 39.160156 38.570312 39.75 37.96875 40.429688 37.578125 C 41.113281 37.191406 41.929688 36.976562 42.828125 36.976562 C 43.722656 36.976562 44.539062 37.191406 45.210938 37.578125 C 45.90625 37.980469 46.507812 38.582031 46.9375 39.332031 L 58.808594 59.921875 C 59.25 60.683594 59.464844 61.488281 59.464844 62.304688 C 59.464844 63.066406 59.277344 63.828125 58.890625 64.554688 C 58.863281 64.59375 58.835938 64.632812 58.808594 64.671875 C 58.355469 65.449219 57.765625 66.050781 57.097656 66.441406 C 56.414062 66.828125 55.597656 67.042969 54.699219 67.042969 L 50.054688 67.042969 C 48.328125 67.042969 46.921875 68.449219 46.921875 70.175781 C 46.921875 71.902344 48.316406 73.308594 50.054688 73.308594 Z M 50.054688 73.308594 " fill-opacity="1" fill-rule="evenodd"/></g><g fill="#29292b" fill-opacity="1"><g transform="translate(77.735711, 71.355116)"><g><path d="M 29.5625 -36 L 37.4375 0 L 27.453125 0 L 26.125 -6.25 L 13.234375 -6.25 L 9.734375 0 L -0.1875 0 L 19.34375 -36 Z M 16.953125 -13.421875 L 24.734375 -13.421875 L 22.734375 -24.875 L 22.640625 -24.875 Z M 16.953125 -13.421875 "/></g></g></g><g fill="#29292b" fill-opacity="1"><g transform="translate(115.022267, 71.355116)"><g><path d="M 22.96875 -36 C 26.21875 -36 28.820312 -35.234375 30.78125 -33.703125 C 32.738281 -32.179688 33.71875 -29.988281 33.71875 -27.125 C 33.71875 -24.0625 32.804688 -21.359375 30.984375 -19.015625 C 29.171875 -16.679688 26.847656 -15.257812 24.015625 -14.75 L 33 0 L 21.34375 0 L 14.703125 -13.84375 L 14.609375 -13.84375 L 12.421875 0 L 3.0625 0 L 8.734375 -36 Z M 15.5625 -19.859375 L 16.859375 -19.859375 C 19.054688 -19.859375 20.757812 -20.320312 21.96875 -21.25 C 23.175781 -22.175781 23.78125 -23.53125 23.78125 -25.3125 C 23.78125 -27.664062 21.835938 -28.84375 17.953125 -28.84375 L 17 -28.84375 Z M 15.5625 -19.859375 "/></g></g></g><g fill="#29292b" fill-opacity="1"><g transform="translate(147.486872, 71.355116)"><g><path d="M 32.5625 -23.921875 C 31.832031 -25.191406 30.789062 -26.171875 29.4375 -26.859375 C 28.082031 -27.546875 26.59375 -27.890625 24.96875 -27.890625 C 21.945312 -27.890625 19.304688 -26.726562 17.046875 -24.40625 C 14.785156 -22.082031 13.65625 -19.328125 13.65625 -16.140625 C 13.65625 -13.753906 14.414062 -11.820312 15.9375 -10.34375 C 17.46875 -8.863281 19.492188 -8.125 22.015625 -8.125 C 23.546875 -8.125 25.082031 -8.460938 26.625 -9.140625 C 28.164062 -9.828125 29.523438 -10.757812 30.703125 -11.9375 L 28.890625 -0.71875 C 28.222656 -0.488281 27.050781 -0.15625 25.375 0.28125 C 23.707031 0.726562 22.046875 0.953125 20.390625 0.953125 C 17.492188 0.953125 14.785156 0.328125 12.265625 -0.921875 C 9.753906 -2.179688 7.726562 -3.945312 6.1875 -6.21875 C 4.644531 -8.5 3.851562 -11.15625 3.8125 -14.1875 C 3.8125 -18.257812 4.816406 -22.019531 6.828125 -25.46875 C 8.835938 -28.925781 11.613281 -31.703125 15.15625 -33.796875 C 18.707031 -35.898438 22.363281 -36.953125 26.125 -36.953125 C 28.789062 -36.953125 31.539062 -36.347656 34.375 -35.140625 Z M 32.5625 -23.921875 "/></g></g></g><g fill="#29292b" fill-opacity="1"><g transform="translate(178.996637, 71.355116)"><g><path d="M 44.265625 -21.484375 C 44.265625 -18.015625 43.257812 -14.414062 41.25 -10.6875 C 39.25 -6.96875 36.414062 -4.054688 32.75 -1.953125 C 29.09375 0.140625 25.164062 1.1875 20.96875 1.1875 C 15.90625 1.1875 11.796875 -0.296875 8.640625 -3.265625 C 5.492188 -6.242188 3.921875 -10.171875 3.921875 -15.046875 C 3.921875 -19.054688 4.976562 -22.753906 7.09375 -26.140625 C 9.207031 -29.535156 12.085938 -32.226562 15.734375 -34.21875 C 19.378906 -36.207031 23.144531 -37.203125 27.03125 -37.203125 C 30.113281 -37.203125 33 -36.53125 35.6875 -35.1875 C 38.382812 -33.851562 40.488281 -32 42 -29.625 C 43.507812 -27.257812 44.265625 -24.546875 44.265625 -21.484375 Z M 22.390625 -7.875 C 24.554688 -7.875 26.554688 -8.46875 28.390625 -9.65625 C 30.222656 -10.851562 31.675781 -12.398438 32.75 -14.296875 C 33.832031 -16.191406 34.375 -18.0625 34.375 -19.90625 C 34.375 -22.195312 33.503906 -24.140625 31.765625 -25.734375 C 30.035156 -27.328125 27.960938 -28.125 25.546875 -28.125 C 23.671875 -28.125 21.804688 -27.613281 19.953125 -26.59375 C 18.109375 -25.570312 16.617188 -24.203125 15.484375 -22.484375 C 14.359375 -20.765625 13.796875 -18.859375 13.796875 -16.765625 C 13.796875 -14.179688 14.597656 -12.050781 16.203125 -10.375 C 17.816406 -8.707031 19.878906 -7.875 22.390625 -7.875 Z M 22.390625 -7.875 "/></g></g></g><g fill="#29292b" fill-opacity="1"><g transform="translate(94.137359, 26.299357)"><g><path d="M 13.640625 -10.796875 C 13.148438 -11.378906 12.566406 -11.828125 11.890625 -12.140625 C 11.210938 -12.460938 10.488281 -12.625 9.71875 -12.625 C 8.625 -12.625 7.566406 -12.3125 6.546875 -11.6875 C 5.523438 -11.070312 4.707031 -10.253906 4.09375 -9.234375 C 3.476562 -8.210938 3.171875 -7.15625 3.171875 -6.0625 C 3.171875 -5.1875 3.378906 -4.375 3.796875 -3.625 C 4.210938 -2.875 4.78125 -2.28125 5.5 -1.84375 C 6.21875 -1.40625 7.03125 -1.1875 7.9375 -1.1875 C 8.675781 -1.1875 9.429688 -1.34375 10.203125 -1.65625 C 10.984375 -1.976562 11.71875 -2.4375 12.40625 -3.03125 L 12.109375 -1.125 C 11.453125 -0.6875 10.742188 -0.347656 9.984375 -0.109375 C 9.234375 0.117188 8.488281 0.234375 7.75 0.234375 C 6.613281 0.234375 5.570312 -0.0234375 4.625 -0.546875 C 3.675781 -1.078125 2.929688 -1.796875 2.390625 -2.703125 C 1.859375 -3.609375 1.59375 -4.617188 1.59375 -5.734375 C 1.601562 -6.191406 1.632812 -6.566406 1.6875 -6.859375 C 1.894531 -8.148438 2.410156 -9.351562 3.234375 -10.46875 C 4.054688 -11.582031 5.078125 -12.457031 6.296875 -13.09375 C 7.523438 -13.738281 8.769531 -14.0625 10.03125 -14.0625 C 10.894531 -14.0625 11.675781 -13.921875 12.375 -13.640625 C 13.082031 -13.359375 13.609375 -13.046875 13.953125 -12.703125 Z M 13.640625 -10.796875 "/></g></g></g><g fill="#29292b" fill-opacity="1"><g transform="translate(107.274087, 26.299357)"><g><path d="M 1.703125 -5.796875 C 1.703125 -7.179688 2.097656 -8.519531 2.890625 -9.8125 C 3.691406 -11.101562 4.738281 -12.132812 6.03125 -12.90625 C 7.320312 -13.675781 8.679688 -14.0625 10.109375 -14.0625 C 11.265625 -14.0625 12.3125 -13.796875 13.25 -13.265625 C 14.1875 -12.742188 14.925781 -12.015625 15.46875 -11.078125 C 16.019531 -10.140625 16.296875 -9.101562 16.296875 -7.96875 C 16.296875 -6.59375 15.90625 -5.269531 15.125 -4 C 14.34375 -2.726562 13.296875 -1.703125 11.984375 -0.921875 C 10.679688 -0.148438 9.300781 0.234375 7.84375 0.234375 C 6.695312 0.234375 5.65625 -0.0195312 4.71875 -0.53125 C 3.78125 -1.039062 3.039062 -1.765625 2.5 -2.703125 C 1.96875 -3.640625 1.703125 -4.671875 1.703125 -5.796875 Z M 9.875 -12.625 C 8.769531 -12.625 7.695312 -12.3125 6.65625 -11.6875 C 5.613281 -11.070312 4.785156 -10.253906 4.171875 -9.234375 C 3.566406 -8.222656 3.265625 -7.15625 3.265625 -6.03125 C 3.265625 -5.125 3.472656 -4.296875 3.890625 -3.546875 C 4.316406 -2.804688 4.890625 -2.226562 5.609375 -1.8125 C 6.335938 -1.394531 7.160156 -1.1875 8.078125 -1.1875 C 9.179688 -1.1875 10.242188 -1.484375 11.265625 -2.078125 C 12.296875 -2.679688 13.128906 -3.503906 13.765625 -4.546875 C 14.410156 -5.597656 14.734375 -6.691406 14.734375 -7.828125 C 14.734375 -9.203125 14.273438 -10.34375 13.359375 -11.25 C 12.441406 -12.164062 11.28125 -12.625 9.875 -12.625 Z M 9.875 -12.625 "/></g></g></g><g fill="#29292b" fill-opacity="1"><g transform="translate(123.067477, 26.299357)"><g><path d="M 3.75 -14.40625 L 12.75 -3.109375 L 14.4375 -13.8125 L 15.984375 -13.8125 L 13.703125 0.625 L 4.703125 -10.65625 L 3.03125 0 L 1.484375 0 Z M 0.984375 -13.8125 Z M 0.984375 -13.8125 "/></g></g></g><g fill="#29292b" fill-opacity="1"><g transform="translate(138.347857, 26.299357)"><g><path d="M 10.609375 -13.8125 L 10.390625 -12.390625 L 7.015625 -12.390625 L 5.0625 0 L 3.515625 0 L 5.484375 -12.390625 L 2.140625 -12.390625 L 2.359375 -13.8125 Z M 10.609375 -13.8125 "/></g></g></g><g fill="#29292b" fill-opacity="1"><g transform="translate(146.959103, 26.299357)"><g><path d="M 10.734375 -13.8125 L 10.515625 -12.390625 L 4.890625 -12.390625 L 4.25 -8.28125 L 9.71875 -8.28125 L 9.46875 -6.859375 L 4.015625 -6.859375 L 3.15625 -1.421875 L 8.78125 -1.421875 L 8.5625 0 L 1.390625 0 L 3.578125 -13.8125 Z M 10.734375 -13.8125 "/></g></g></g><g fill="#29292b" fill-opacity="1"><g transform="translate(156.742944, 26.299357)"><g><path d="M 3.75 -14.40625 L 12.75 -3.109375 L 14.4375 -13.8125 L 15.984375 -13.8125 L 13.703125 0.625 L 4.703125 -10.65625 L 3.03125 0 L 1.484375 0 Z M 0.984375 -13.8125 Z M 0.984375 -13.8125 "/></g></g></g><g fill="#29292b" fill-opacity="1"><g transform="translate(172.023324, 26.299357)"><g><path d="M 10.609375 -13.8125 L 10.390625 -12.390625 L 7.015625 -12.390625 L 5.0625 0 L 3.515625 0 L 5.484375 -12.390625 L 2.140625 -12.390625 L 2.359375 -13.8125 Z M 10.609375 -13.8125 "/></g></g></g></svg>